
<svg width="543px" height="479px" viewBox="0 0 543 479" version="1.1" xmlns="http://www.w3.org/2000/svg" xmlns:xlink="http://www.w3.org/1999/xlink">
    <g id="Template---Icons---App" stroke="none" stroke-width="1" fill="none" fill-rule="evenodd">
        <g id="App-Icons---@2x" transform="translate(-244, -863)">
            <g id="512x512@2x" transform="translate(0, 590)">
                <g id="Artwork" transform="translate(100, 100)">
                    <g id="Group-2" transform="translate(-21, -11)">
                        <g id="Group" transform="translate(165, 184)">
                            <path d="M178.566075,344 C196.124133,344 212.716512,341.891765 228.343212,337.675295 C243.969193,333.458826 258.410325,327.880789 271.666609,320.941186 C284.92469,314.001565 296.79835,306.359199 307.287589,298.014089 C317.778626,289.668942 326.733314,281.279899 334.151655,272.846959 C341.569995,264.41402 347.232638,256.617936 351.139583,249.458708 C355.046528,242.299659 357,236.480077 357,231.99996 C357,227.520022 355.046528,221.70044 351.139583,214.541211 C347.232638,207.381983 341.569995,199.585899 334.151655,191.15296 C326.733314,182.720021 317.75705,174.330977 307.222863,165.98583 C296.688675,157.640864 284.79344,149.998507 271.537156,143.05876 C258.280873,136.119193 243.860957,130.541219 228.277407,126.324839 C212.694577,122.10828 196.124133,120 178.566075,120 C161.183497,120 144.722727,122.10828 129.183767,126.324839 C113.644987,130.541219 99.2473646,136.119193 85.9909015,143.05876 C72.7346181,149.998507 60.8170881,157.640864 50.2383114,165.98583 C39.6595348,174.330977 30.6171062,182.720021 23.1110257,191.15296 C15.6049451,199.585899 9.87658737,207.381983 5.92595242,214.541211 C1.97531747,221.70044 0,227.520022 0,231.99996 C0,236.480077 1.97531747,242.299659 5.92595242,249.458708 C9.87658737,256.617936 15.6049451,264.41402 23.1110257,272.846959 C30.6171062,281.279899 39.6595348,289.668942 50.2383114,298.014089 C60.8170881,306.359199 72.7346181,314.001565 85.9909015,320.941186 C99.2473646,327.880789 113.644987,333.458826 129.183767,337.675295 C144.722727,341.891765 161.183497,344 178.566075,344 Z M179.067575,306 C168.751436,306 159.118596,304.086653 150.169058,300.25996 C141.219699,296.433069 133.372398,291.110806 126.627153,284.29317 C119.882089,277.475355 114.613868,269.645911 110.822489,260.804839 C107.031111,251.963587 105.091271,242.5286 105.002969,232.499878 C104.914848,222.207215 106.788507,212.618366 110.623946,203.733334 C114.459566,194.848302 119.749907,187.040838 126.494972,180.310943 C133.240216,173.581049 141.109548,168.346796 150.102967,164.608186 C159.096566,160.869395 168.751436,159 179.067575,159 C189.295413,159 198.884102,160.869395 207.83364,164.608186 C216.783179,168.346796 224.63048,173.581049 231.375545,180.310943 C238.120789,187.040838 243.411221,194.848302 247.246841,203.733334 C251.08228,212.618366 253,222.207215 253,232.499878 C253,242.5286 251.08228,251.963587 247.246841,260.804839 C243.411221,269.645911 238.120789,277.475355 231.375545,284.29317 C224.63048,291.110806 216.783179,296.433069 207.83364,300.25996 C198.884102,304.086653 189.295413,306 179.067575,306 Z M179.565206,258 C186.770695,258 192.977866,255.391631 198.18672,250.174893 C203.395573,244.958154 206,238.755096 206,231.565719 C206,224.288716 203.395573,218.041846 198.18672,212.825107 C192.977866,207.608369 186.770695,205 179.565206,205 C172.272776,205 166.022134,207.608369 160.81328,212.825107 C155.604427,218.041846 153,224.288716 153,231.565719 C153,238.755096 155.604427,244.958154 160.81328,250.174893 C166.022134,255.391631 172.272776,258 179.565206,258 Z" id="quicklook-eye" fill="#E35757" fill-rule="nonzero"></path>
                        </g>
                    </g>
                </g>
            </g>
        </g>
    </g>
</svg>
